<svg xmlns="http://www.w3.org/2000/svg" xmlns:xlink="http://www.w3.org/1999/xlink" id="Camada_1" x="0px" y="0px" viewBox="0 0 1080 1080" style="enable-background:new 0 0 1080 1080;" xml:space="preserve"><style type="text/css">	.st0{fill:#121212;}</style><g>	<path class="st0" d="M716.26,160.82c14.22,4.06,27.08,10.61,33.01,24.89c3.3,7.95,5.28,17.06,5.32,25.66  c0.4,84.65,0.28,169.3,0.28,253.95c0,134.01-0.03,268.02-0.05,402.03c-0.01,33.48-18.26,51.82-51.57,51.82  c-108.86,0.01-217.71,0.01-326.57,0c-33.31,0-51.57-18.35-51.57-51.83c0-216.93,0-433.87,0-650.8c0-32.8,8.01-44.38,38.57-55.73  C481.2,160.82,598.73,160.82,716.26,160.82z M729.15,767.21c0-168.71,0-336.69,0-504.84c-126.42,0-252.39,0-378.37,0  c0,168.52,0,336.49,0,504.84C477,767.21,602.8,767.21,729.15,767.21z M350.34,793.2c0,26.52-0.06,52.16,0.02,77.81  c0.05,14.72,8.2,22.91,22.97,22.91c111.09,0.05,222.19,0.05,333.28,0c14.77-0.01,22.89-8.19,22.94-22.94  c0.08-23.94,0.03-47.89,0-71.83c0-1.9-0.29-3.8-0.47-5.95C602.86,793.2,477.05,793.2,350.34,793.2z M350.42,235.97  c126.87,0,252.82,0,379.17,0c0-8.42,0.01-16.29,0-24.16c-0.02-18.57-7.28-25.76-26.08-25.76c-109.07,0-218.15,0-327.22,0  c-2.47,0-4.96-0.1-7.4,0.18c-10.13,1.16-17.92,8.91-18.37,19.07C350.08,215.36,350.42,225.45,350.42,235.97z"></path>	<path class="st0" d="M539.68,874.6c-4.92,0-9.87,0.28-14.77-0.05c-14.57-1-25.83-12.23-26.83-26.48  c-1.35-19.03,7.05-33.25,22.95-35.25c12.49-1.57,25.49-1.57,37.97,0c15.9,2,24.28,16.22,22.92,35.28  c-1.02,14.24-12.27,25.46-26.86,26.45C549.96,874.9,544.81,874.61,539.68,874.6z M540.24,853.71c4.09,0,8.19,0.1,12.28-0.02  c5.4-0.16,8.15-3.1,8.49-8.47c0.49-7.48-1.53-11.76-7.17-12.11c-9.16-0.58-18.41-0.57-27.57-0.03c-5.7,0.34-7.73,4.53-7.3,12.02  c0.31,5.34,2.94,8.4,8.38,8.58C531.65,853.82,535.95,853.7,540.24,853.71z"></path>	<path class="st0" d="M605.42,222.47H474.58c-5.61,0-10.16-4.55-10.16-10.16v0c0-5.61,4.55-10.16,10.16-10.16h130.83  c5.61,0,10.16,4.55,10.16,10.16v0C615.58,217.92,611.03,222.47,605.42,222.47z"></path>	<path class="st0" d="M691.29,222.47h-17.25c-5.61,0-10.16-4.55-10.16-10.16v0c0-5.61,4.55-10.16,10.16-10.16h17.25  c5.61,0,10.16,4.55,10.16,10.16v0C701.46,217.92,696.91,222.47,691.29,222.47z"></path></g></svg>