<svg xmlns="http://www.w3.org/2000/svg" xmlns:xlink="http://www.w3.org/1999/xlink" id="Camada_1" x="0px" y="0px" viewBox="0 0 1080 1080" style="enable-background:new 0 0 1080 1080;" xml:space="preserve"><style type="text/css">	.st0{fill:#121212;}</style><g>	<path class="st0" d="M729.6,160.78c14.45,4.75,25.32,13.16,28.7,28.81c0.82,3.81,0.91,7.83,0.92,11.75  c0.09,19.7,0.04,39.4,0.04,60.04c3.22,0,5.84,0,8.46,0c18.51,0,37.03-0.15,55.54,0.05c20.41,0.21,35.88,15.62,36.56,36.06  c0.07,1.97,0.03,3.95,0.03,5.92c0,142.44,0.02,284.88-0.02,427.32c-0.01,28.4-10.56,52.24-31.31,71.68  c-30.62,28.7-61.24,57.4-91.64,86.32c-21.42,20.38-46.62,30.5-76.21,30.46c-99.49-0.13-198.97-0.04-298.46-0.05  c-27.17,0-41.47-14.35-41.48-41.6c-0.01-19.25,0-38.5,0-59.01c-2.87,0-5.44,0-8.02,0c-18.27,0-36.54,0.09-54.8-0.03  c-22.11-0.14-37.74-15.66-37.75-37.87c-0.06-194.03-0.06-388.07,0-582.1c0.01-20.05,11.48-31.57,29.5-37.78  C409.65,160.78,569.63,160.78,729.6,160.78z M677.08,890.9c0-3.4,0-6.29,0-9.19c0-27.89-0.18-55.78,0.06-83.66  c0.28-31.5,21.3-52.26,52.7-52.35c29.37-0.08,58.74-0.02,88.11-0.02c14.27,0,14.31,0,14.31-14.27  c0.01-142.65,0.02-285.29,0.02-427.94c0-12.72-2.24-14.93-15.17-14.93c-151.28-0.01-302.57-0.01-453.85,0  c-12.82,0-15.17,2.33-15.17,15.05c-0.01,191.02-0.01,382.04,0,573.06c0,13.08,1.94,15.02,15.01,15.02  c99.95,0.01,199.9,0.01,299.85-0.03C667.33,891.64,671.72,891.19,677.08,890.9z M731.94,261.39c0-19.84,0.01-38.56,0-57.28  c-0.01-14.12-1.7-15.83-15.69-15.83c-150.81,0-301.61,0-452.42,0c-14.83,0-16.12,1.29-16.12,16.02c0,190.3,0,380.59,0,570.89  c0,2.22,0,4.44,0.07,6.66c0.19,5.6,3.36,9.18,8.66,9.25c21.15,0.3,42.32,0.12,64.3,0.12c0-3.75,0-6.88,0-10.01  c0-159.44,0-318.89,0-478.33c0-27.31,14.18-41.49,41.46-41.49c119.95-0.01,239.91,0,359.86,0  C725,261.39,727.94,261.39,731.94,261.39z M819.43,773.28c-4.21-0.21-5.84-0.37-7.47-0.37c-27.4-0.01-54.79-0.07-82.19,0.01  c-15.94,0.05-25.27,9.43-25.31,25.35c-0.06,24.68-0.02,49.36-0.02,74.04c0,2.09,0,4.18,0,6.27c0.66,0.36,1.33,0.72,1.99,1.08  C743.57,844.7,780.71,809.73,819.43,773.28z"></path>	<path class="st0" d="M590.45,389.08c42.42,0,84.84-0.03,127.27,0.06c3.4,0.01,6.99,0.23,10.15,1.34c5.71,2,8.56,6.73,8.46,12.64  c-0.1,5.89-3.05,10.47-8.83,12.4c-2.74,0.92-5.8,1.2-8.71,1.2c-85.58,0.06-171.17,0.05-256.75,0.03c-2.21,0-4.47-0.02-6.62-0.47  c-6.8-1.4-11.49-7.12-11.38-13.58c0.11-6.5,4.93-12.09,11.77-13.27c2.65-0.46,5.4-0.34,8.11-0.34  C506.1,389.07,548.28,389.08,590.45,389.08z"></path>	<path class="st0" d="M590.06,599.28c-43.4,0-86.81,0.04-130.21-0.03c-11.53-0.02-18.96-8.75-14.57-17.95  c1.81-3.8,6.65-6.51,10.64-8.79c2.08-1.19,5.31-0.43,8.02-0.43c84.09-0.01,168.19-0.01,252.28-0.01c13.83,0,20.36,4.48,20.19,13.79  c-0.17,9.14-6.49,13.42-19.83,13.42C674.4,599.28,632.23,599.28,590.06,599.28z"></path>	<path class="st0" d="M590.48,480.67c43.4,0,86.81-0.03,130.21,0.02c10.29,0.01,16.87,6.48,15.51,15.25  c-1.01,6.53-4.79,10.71-11.53,11.65c-2.43,0.34-4.92,0.27-7.38,0.28c-84.59,0.01-169.18,0.01-253.77,0.01  c-13.02,0-19.64-4.73-19.46-13.84c0.18-8.88,6.6-13.36,19.17-13.37C505.64,480.67,548.06,480.67,590.48,480.67z"></path>	<path class="st0" d="M530.89,663.19c22.68,0,45.37-0.04,68.05,0.05c3.17,0.01,6.48,0.18,9.46,1.1c5.78,1.79,8.81,6.12,9,12.18  c0.2,6.37-2.71,11.04-8.75,13.1c-2.94,1.01-6.28,1.2-9.43,1.21c-45.61,0.07-91.23,0.05-136.84,0.05c-0.49,0-0.99,0.01-1.48,0  c-10.25-0.18-16.75-5.46-16.86-13.7c-0.11-8.24,6.43-13.88,16.58-13.95c16.27-0.11,32.55-0.03,48.82-0.03  C516.59,663.19,523.74,663.19,530.89,663.19z"></path></g></svg>