<svg xmlns="http://www.w3.org/2000/svg" xmlns:xlink="http://www.w3.org/1999/xlink" id="Camada_1" x="0px" y="0px" viewBox="0 0 1080 1080" style="enable-background:new 0 0 1080 1080;" xml:space="preserve"><style type="text/css">	.st0{fill:#121212;}</style><g>	<path class="st0" d="M238.13,363.1c3.9-8.09,10.53-10.43,19.21-10.42c188.44,0.13,376.88,0.1,565.32,0.1  c14.42,0,19.21,4.72,19.21,18.89c0,112.22,0,224.44,0,336.66c0,13.97-4.82,18.9-18.62,18.9c-188.83,0.01-377.67-0.02-566.5,0.1  c-8.51,0.01-14.82-2.62-18.62-10.41C238.13,598.97,238.13,481.04,238.13,363.1z M813.19,698.65c0-106.12,0-211.57,0-317.09  c-182.4,0-364.42,0-546.38,0c0,105.92,0,211.38,0,317.09C449.07,698.65,630.95,698.65,813.19,698.65z"></path>	<path class="st0" d="M422.67,483.61c26.9,0,53.8-0.02,80.69,0.01c12.63,0.01,17.74,5.21,17.75,17.95  c0.01,25.92,0.03,51.84-0.01,77.76c-0.01,11.54-5.4,17.04-16.88,17.05c-54.38,0.04-108.77,0.04-163.15,0  c-11.48-0.01-16.83-5.5-16.85-17.07c-0.03-26.31-0.03-52.63,0-78.94c0.02-11.18,5.43-16.71,16.57-16.74  C368.09,483.56,395.38,483.61,422.67,483.61z M492.47,567.79c0-18.9,0-37.09,0-55.48c-46.73,0-93.12,0-139.52,0  c0,18.72,0,37.05,0,55.48C399.64,567.79,445.89,567.79,492.47,567.79z"></path>	<path class="st0" d="M676,471.9c-21.81,0-43.62,0.16-65.42-0.08c-8.14-0.09-13.85-6.26-13.89-13.86  c-0.04-7.33,5.39-13.19,13.16-14.09c1.94-0.22,3.92-0.16,5.89-0.16c24.95-0.01,49.91-0.01,74.86-0.01c16.7,0,33.4-0.1,50.1,0.07  c7.53,0.08,12.34,3.65,14.33,10.02c1.85,5.9,0.42,11.39-4.49,14.69c-3.32,2.22-7.97,3.32-12.06,3.38  c-20.82,0.33-41.65,0.15-62.48,0.15C676,471.96,676,471.93,676,471.9z"></path>	<path class="st0" d="M676.28,608.03c21.42,0.01,42.83-0.16,64.24,0.07c12.38,0.14,19.16,11.76,12.94,21.58  c-3.31,5.23-8.41,6.66-14.22,6.65c-13.75-0.03-27.51-0.01-41.26-0.01c-27.31,0-54.62,0-81.93,0c-1.96,0-3.94,0.07-5.89-0.13  c-8.06-0.84-13.66-6.89-13.47-14.41c0.2-7.62,5.9-13.48,14.16-13.62c16.11-0.27,32.22-0.12,48.33-0.14  C664.88,608.01,670.58,608.02,676.28,608.03z"></path>	<path class="st0" d="M676.22,554.15c-21.42,0-42.84,0.1-64.25-0.03c-11.25-0.07-18.28-9.94-14.08-19.55  c2.42-5.55,6.88-8.64,12.92-8.65c43.62-0.08,87.24-0.11,130.86,0.02c8.22,0.03,14.24,6.59,14.06,14.36  c-0.18,7.78-6.25,13.74-14.67,13.8C719.45,554.24,697.83,554.15,676.22,554.15z"></path></g></svg>